<svg xmlns="http://www.w3.org/2000/svg" width="232" height="64" viewBox="0 0 232 64">
    <defs>
        <linearGradient id="kwafdgwvxa" x1="49.656%" x2="50.354%" y1="98.928%" y2=".815%">
            <stop offset="0%" stop-color="#0077B5"/>
            <stop offset="100%" stop-color="#00AFDB"/>
        </linearGradient>
        <linearGradient id="c53y1f0l9b" x1="2.955%" x2="97.824%" y1="51.901%" y2="38.004%">
            <stop offset="0%" stop-color="#9F041B"/>
            <stop offset="100%" stop-color="#F5515F"/>
        </linearGradient>
        <linearGradient id="3haox514fc" x1="13.6%" x2="81.76%" y1="65.786%" y2="48.464%">
            <stop offset="0%" stop-color="#0079B6"/>
            <stop offset="100%" stop-color="#00ADDA"/>
        </linearGradient>
    </defs>
    <g fill="none" fill-rule="evenodd">
        <g>
            <g>
                <g>
                    <g>
                        <path fill="url(#kwafdgwvxa)" fill-rule="nonzero" d="M28.138 53.523c12.625-.407 23.305-9.575 25.761-22.116 1.21-5.502-.171-11.262-3.738-15.591-3.567-4.33-8.917-6.74-14.482-6.524-12.626.407-23.305 9.575-25.762 22.115-1.21 5.503.171 11.262 3.738 15.592s8.917 6.74 14.483 6.524zM7.458 25.079l-.937-1.375c-.203-.212-.482-.331-.773-.331-.291 0-.57.12-.773.33l-3.068 2.371c2.25-6.353 6.082-12.01 11.125-16.427l8.08.309c.628-.006 1.17-.447 1.311-1.067l.398-1.92c.074-.272.017-.564-.153-.787-.17-.224-.435-.353-.713-.35l-3.654-.12C23.816 2.163 30.176.19 36.71 0l4.473 5.95c.203.211.482.33.773.33.292 0 .57-.119.773-.33l1.616-1.21c.503-.35.647-1.037.328-1.564L42.658.474c5.777.98 11.045 3.943 14.918 8.391l-1.686 8.107c-.073.272-.016.563.154.787.17.223.434.353.713.35h1.897c.628-.005 1.17-.446 1.311-1.066l.75-3.65c2.754 5.404 3.691 11.571 2.67 17.564l-6.863 5.523c-.503.35-.647 1.038-.327 1.564l1.053 1.399c.203.211.482.33.773.33.292 0 .57-.119.773-.33l3.092-2.37c-2.247 6.361-6.079 12.027-11.125 16.45l-8.01-.308c-.628.006-1.17.447-1.31 1.066l-.4 1.92c-.072.273-.016.564.155.787.17.224.434.354.712.351l3.607.142C40 61.031 33.64 63.005 27.107 63.194l-4.497-5.95c-.202-.211-.481-.33-.772-.33-.292 0-.57.119-.773.33l-1.616 1.304c-.503.35-.647 1.038-.328 1.565l1.99 2.607c-5.777-.98-11.045-3.943-14.918-8.391l1.686-8.13c.08-.268.033-.558-.127-.785-.16-.228-.416-.367-.692-.377H5.163c-.629.006-1.171.447-1.312 1.067l-.773 3.674C.314 44.359-.624 38.174.408 32.166l6.862-5.523c.495-.358.629-1.044.305-1.564h-.117z" transform="translate(-1078 -16) translate(1078 16) translate(167.51)"/>
                        <path fill="url(#c53y1f0l9b)" d="M45.28 32.948l-.749 2.608c-.447 1.717-1.85 3.007-3.583 3.294h-12.81l-1.5 5.168c-.468 1.612-1.428 2.038-2.341.972l-7.729-10.027c-.322-.601-.422-1.299-.28-1.967l28.993-.048z" transform="translate(-1078 -16) translate(1078 16) translate(167.51)"/>
                        <path fill="url(#3haox514fc)" d="M17.27 30.175l.75-2.56c.445-1.71 1.837-3 3.56-3.295h12.88l1.5-5.167c.468-1.612 1.428-2.039 2.342-.972l7.728 10.026c.323.601.422 1.3.281 1.968h-29.04z" transform="translate(-1078 -16) translate(1078 16) translate(167.51)"/>
                    </g>
                    <path fill="#0077B5" d="M144.805 20.691c1.5.09 2.983-.354 4.192-1.256 1.02-.89 1.57-2.212 1.487-3.571.041-.962-.387-1.882-1.146-2.463-.966-.617-2.1-.91-3.241-.838h-4.266l-1.633 8.177 4.607-.049zm11.187-5.32c.054 2.037-.573 4.032-1.779 5.665-1.235 1.602-2.942 2.767-4.875 3.325l4.095 7.389h-5.777l-3.68-6.6h-4.631l-1.316 6.6h-5.436l4.68-23.57h9.53c2.387-.183 4.764.45 6.752 1.797 1.63 1.292 2.539 3.303 2.437 5.394zm-35.317-2.93l-1 5.122h10.871l-.829 4.236h-10.92l-1.072 5.444h12.797l-.902 4.384H111.46l4.68-23.571h17.72l-.902 4.384h-12.284zm-21.254 0h-7.507l.901-4.434h20.426l-.902 4.433h-7.532l-3.826 19.113h-5.363l3.803-19.113zm-21.035 8.176c1.5.09 2.984-.354 4.192-1.256 1.021-.89 1.571-2.211 1.487-3.571.042-.961-.387-1.882-1.145-2.463-.967-.617-2.101-.91-3.242-.838h-4.265l-1.634 8.177 4.607-.049zm11.188-5.32c.054 2.037-.573 4.032-1.78 5.665-1.235 1.602-2.942 2.767-4.874 3.325l4.094 7.389h-5.776l-3.68-6.6h-4.632l-1.316 6.6h-5.46l4.68-23.57h9.604c2.4-.145 4.778.532 6.751 1.92 1.598 1.292 2.486 3.28 2.389 5.345v-.074zM56.279 22.44l-1.974-9.089-5.557 9.089h7.531zm.902 4.138H46.31l-3.048 5.049h-5.825l15.16-23.571h5.363l5.752 23.57h-5.41l-1.122-5.048zM31.15 12.514h-7.507l.901-4.433H44.97l-.902 4.433H36.56l-3.827 19.113h-5.387l3.803-19.113zM21.4 8.081l-.877 4.433h-7.58c-1.045-.093-2.097.024-3.096.345-.87.302-1.424 1.167-1.34 2.093-.015.498.19.976.56 1.306.42.37.91.655 1.438.837.585.214 1.398.468 2.437.764 1.254.323 2.484.735 3.68 1.231.94.41 1.775 1.034 2.438 1.823.713.888 1.078 2.01 1.024 3.152.032 1.524-.44 3.015-1.34 4.237-.984 1.231-2.282 2.168-3.754 2.709-1.821.695-3.758 1.03-5.704.985-1.796.007-3.585-.242-5.313-.739C2.554 30.874 1.21 30.25 0 29.41l2.218-4.212c1.097.801 2.315 1.417 3.607 1.823 1.333.426 2.722.642 4.12.64 1.228.06 2.452-.194 3.558-.739.791-.355 1.305-1.144 1.316-2.02-.002-.696-.414-1.325-1.048-1.6-1.063-.512-2.173-.916-3.315-1.207-1.258-.363-2.495-.798-3.704-1.305-.944-.428-1.778-1.068-2.438-1.872-.733-.936-1.106-2.109-1.048-3.3-.028-1.512.434-2.991 1.316-4.212.964-1.27 2.266-2.235 3.754-2.784 1.751-.536 3.588-.729 5.41-.566l7.654.025z" transform="translate(-1078 -16) translate(1078 16)"/>
                    <path fill="#989B9E" fill-rule="nonzero" d="M3.099 52.348c.146 0 .264-.048.352-.143.088-.095.132-.216.132-.363V41.106c0-.147-.044-.268-.132-.363-.088-.095-.206-.143-.352-.143H2.065c-.147 0-.268.048-.363.143-.096.095-.143.216-.143.363v10.736c0 .147.047.268.143.363.095.095.216.143.363.143h1.034zM3.275 56c.146 0 .267-.048.363-.143.095-.095.143-.216.143-.363v-1.386c0-.161-.048-.29-.143-.385-.096-.095-.217-.143-.363-.143H1.867c-.147 0-.268.048-.363.143-.096.095-.143.224-.143.385v1.386c0 .147.047.268.143.363.095.095.216.143.363.143h1.408zm139.744 0c.146 0 .275-.051.385-.154.11-.103.172-.227.187-.374l1.679-10.23h2.325c.487 0 .933.115 1.336.345l.17.106c.448.3.8.73 1.057 1.287.256.557.385 1.21.385 1.958v5.302h-4.18c-.147 0-.268.048-.363.143-.096.095-.143.216-.143.363v.748c0 .147.047.268.143.363.095.095.216.143.363.143h5.676c.146 0 .267-.048.363-.143.095-.095.143-.216.143-.363v-6.688c0-1.13-.202-2.094-.605-2.893-.404-.8-.961-1.412-1.672-1.837-.712-.425-1.522-.638-2.431-.638h-5.588c-.162 0-.286.048-.374.143-.088.095-.132.216-.132.363v.792c0 .147.044.268.132.363.088.095.212.143.374.143h1.114l-1.774 10.23c-.012.117.009.22.063.31l.047.064c.088.103.198.154.33.154h.99zm-4.686 0c.146 0 .267-.048.363-.143.095-.095.143-.216.143-.363v-6.688c0-1.173-.206-2.16-.616-2.959-.41-.8-1.03-1.4-1.86-1.804-.828-.403-1.873-.605-3.134-.605h-4.774c-.147 0-.268.048-.363.143-.096.095-.143.216-.143.363v.748c0 .147.047.268.143.363.095.095.216.143.363.143h1.173l-.048.215c-.05.237-.094.463-.13.68l-.05.315c-.073.513-.117 1.023-.131 1.529-.015.506-.022 1.06-.022 1.661v4.664l-1.694-.022c-.147 0-.268.048-.363.143-.096.095-.143.216-.143.363v.704c0 .161.047.286.143.374.095.088.216.132.363.132l3.124.044c.146 0 .264-.048.352-.143.088-.095.132-.216.132-.363l-.044-5.984c0-.616.014-1.17.044-1.661.03-.491.084-.986.165-1.485.048-.3.103-.62.165-.961l.037-.205h1.569c1.218 0 2.127.284 2.725.853l.124.126c.594.653.89 1.566.89 2.739v6.578c0 .147.045.268.133.363.088.095.212.143.374.143h.99zm-22.924 0c.161 0 .286-.048.374-.143.088-.095.132-.216.132-.363V45.198h2.662c1.32 0 2.273.326 2.86.979.587.653.88 1.566.88 2.739v6.578c0 .147.044.268.132.363.088.095.213.143.374.143h.99c.147 0 .268-.048.363-.143.095-.095.143-.216.143-.363V48.85c0-1.203-.205-2.204-.616-3.003-.41-.8-1.03-1.4-1.86-1.804-.828-.403-1.88-.605-3.156-.605h-4.268c-.147 0-.268.048-.363.143-.095.095-.143.216-.143.363v11.55c0 .147.048.268.143.363.095.095.216.143.363.143h.99zm-5.25-5.104c.162 0 .286-.048.374-.143.088-.095.132-.216.132-.363v-6.446c0-.147-.044-.268-.132-.363-.088-.095-.212-.143-.374-.143h-1.034c-.146 0-.267.048-.363.143-.095.095-.143.216-.143.363v6.446c0 .147.048.268.143.363.096.095.217.143.363.143h1.034zM99.58 56.143c.117.08.242.099.374.055l.902-.308c.645-.22 1.269-.502 1.87-.847.601-.345 1.14-.781 1.617-1.309.477-.528.854-1.166 1.133-1.914s.418-1.635.418-2.662c0-1.364-.172-2.468-.517-3.311-.345-.843-.913-1.456-1.705-1.837s-1.855-.572-3.19-.572H98.81v-2.552c0-.147-.048-.268-.143-.363-.095-.095-.216-.143-.363-.143h-.924c-.147 0-.268.048-.363.143-.095.095-.143.216-.143.363v3.85c0 .147.048.264.143.352.095.088.216.132.363.132l2.053.017.081.005H100.174c.821 0 1.49.096 2.003.287l.186.076c.535.242.917.645 1.144 1.21.227.565.341 1.324.341 2.277 0 .997-.136 1.804-.407 2.42-.271.616-.645 1.104-1.122 1.463-.477.36-1 .656-1.573.891l-.858.33c-.161.059-.282.14-.363.242-.08.103-.12.22-.12.352v1.012c0 .147.058.26.175.341zm-6.086-5.247c.162 0 .286-.048.374-.143.088-.095.132-.216.132-.363v-6.446c0-.147-.044-.268-.132-.363-.088-.095-.212-.143-.374-.143H92.46c-.146 0-.267.048-.363.143-.095.095-.143.216-.143.363v6.446c0 .147.048.268.143.363.096.095.217.143.363.143h1.034zM88.336 56c.16 0 .286-.048.374-.143.088-.095.132-.216.132-.363v-6.688c0-1.188-.202-2.178-.605-2.97-.404-.792-1.016-1.39-1.837-1.793-.822-.403-1.863-.605-3.124-.605h-4.202c-.147 0-.268.048-.363.143-.096.095-.143.216-.143.363v11.55c0 .147.047.268.143.363.095.095.216.143.363.143h9.262zm-1.452-1.76H80.46v-9.042h2.706c1.305 0 2.25.326 2.838.979.586.653.88 1.566.88 2.739v5.324zm-22.889 1.903c.118.08.242.099.374.055l.902-.308c.646-.22 1.269-.502 1.87-.847.602-.345 1.14-.781 1.617-1.309.477-.528.855-1.166 1.133-1.914.279-.748.418-1.635.418-2.662 0-1.364-.172-2.468-.517-3.311-.344-.843-.913-1.456-1.705-1.837s-1.855-.572-3.19-.572h-1.672v-2.552c0-.147-.047-.268-.143-.363-.095-.095-.216-.143-.363-.143h-.924c-.146 0-.267.048-.363.143-.095.095-.143.216-.143.363v3.85c0 .147.048.264.143.352.096.088.217.132.363.132l2.053.017.081.005H64.59c.822 0 1.49.096 2.004.287l.185.076c.536.242.917.645 1.144 1.21.228.565.341 1.324.341 2.277 0 .997-.135 1.804-.407 2.42-.271.616-.645 1.104-1.122 1.463-.476.36-1 .656-1.573.891l-.858.33c-.161.059-.282.14-.363.242-.08.103-.12.22-.12.352v1.012c0 .147.058.26.175.341zm-6.1-.143c.147 0 .268-.048.364-.143.095-.095.143-.216.143-.363V48.85c0-1.76-.459-3.102-1.375-4.026-.917-.924-2.329-1.386-4.235-1.386h-4.246c-.147 0-.268.048-.363.143-.096.095-.143.216-.143.363v.748c0 .147.047.268.143.363.095.095.216.143.363.143h4.136c1.305 0 2.251.326 2.838.979.586.653.88 1.566.88 2.739v6.578c0 .147.047.268.143.363.095.095.216.143.363.143h.99zm-8.36 0c.162 0 .287-.048.375-.143.088-.095.132-.216.132-.363v-7.348c0-.147-.044-.268-.132-.363-.088-.095-.213-.143-.374-.143h-.99c-.147 0-.268.048-.363.143-.096.095-.143.216-.143.363v7.348c0 .147.047.268.143.363.095.095.216.143.363.143h.99zm-10.655.132c.894.03 1.712-.095 2.453-.374.74-.279 1.382-.686 1.925-1.221.542-.535.96-1.18 1.254-1.936.293-.755.44-1.602.44-2.541v-6.116c0-.147-.044-.268-.132-.363-.088-.095-.213-.143-.374-.143h-.902c-.147 0-.268.048-.363.143-.096.095-.143.216-.143.363v5.962c0 .88-.173 1.661-.517 2.343-.345.682-.844 1.206-1.496 1.573-.653.367-1.456.543-2.41.528h-.681c-1.086 0-1.98-.337-2.684-1.012-.403-.386-.69-.867-.862-1.444l-.036-.129.085-.004c.91-.049 1.697-.219 2.362-.509l.244-.114c.872-.44 1.521-1.041 1.947-1.804.425-.763.638-1.62.638-2.574v-2.816c0-.147-.048-.268-.143-.363-.096-.095-.217-.143-.363-.143h-.902c-.162 0-.286.048-.374.143-.088.095-.132.216-.132.363v2.728c0 .63-.114 1.21-.341 1.738-.228.528-.627.95-1.2 1.265-.467.258-1.107.415-1.919.472l-.064.004-.062-6.207c0-.117-.03-.218-.092-.303l-.051-.06c-.096-.095-.217-.143-.363-.143h-.924c-.147 0-.268.048-.363.143-.096.095-.143.216-.143.363v6.93c0 1.041.22 1.958.66 2.75.44.792 1.041 1.408 1.804 1.848.762.44 1.62.66 2.574.66h1.65zM28.466 56c.16 0 .286-.048.374-.143.088-.095.132-.216.132-.363v-11.55c0-.147-.044-.268-.132-.363-.088-.095-.213-.143-.374-.143h-1.034c-.147 0-.268.048-.363.143-.096.095-.143.216-.143.363v11.55c0 .147.047.268.143.363.095.095.216.143.363.143h1.034zm-5.443 0c.162 0 .286-.048.374-.143.088-.095.132-.216.132-.363v-11.55c0-.147-.044-.268-.132-.363-.088-.095-.212-.143-.374-.143H21.99c-.146 0-.267.048-.363.143-.095.095-.143.216-.143.363v11.55c0 .147.048.268.143.363.096.095.217.143.363.143h1.034zm-5.301 0c.146 0 .267-.048.363-.143.095-.095.143-.216.143-.363v-6.688c0-1.173-.206-2.16-.616-2.959-.411-.8-1.03-1.4-1.86-1.804-.828-.403-1.873-.605-3.134-.605H7.844c-.147 0-.268.048-.363.143-.096.095-.143.216-.143.363v.748c0 .147.047.268.143.363.095.095.216.143.363.143h1.173l-.048.215c-.05.237-.094.463-.13.68l-.05.315c-.073.513-.117 1.023-.131 1.529-.015.506-.022 1.06-.022 1.661v4.664l-1.694-.022c-.147 0-.268.048-.363.143-.096.095-.143.216-.143.363v.704c0 .161.047.286.143.374.095.088.216.132.363.132l3.124.044c.146 0 .264-.048.352-.143.088-.095.132-.216.132-.363l-.044-5.984c0-.616.014-1.17.044-1.661.029-.491.084-.986.165-1.485.048-.3.103-.62.165-.961l.037-.205h1.569c1.218 0 2.126.284 2.725.853l.124.126c.594.653.89 1.566.89 2.739v6.578c0 .147.045.268.133.363.088.095.212.143.374.143h.99z" transform="translate(-1078 -16) translate(1078 16)"/>
                </g>
            </g>
        </g>
    </g>
</svg>
